<svg width="120" height="153" viewBox="0 0 120 153" fill="none" xmlns="http://www.w3.org/2000/svg">
<g clip-path="url(#clip0_375_85)">
<path d="M80.5794 109.42V152.59C75.1794 151.02 59.8294 145.54 48.6594 126.31C43.7094 117.8 41.1194 109.23 39.6994 102.94C39.5894 68.6202 39.4694 34.3102 39.3594 -0.00976562C44.4294 1.70023 54.4294 6.06024 63.8494 17.7602C75.4794 32.1902 79.3194 49.2302 80.5694 56.1002V109.42H80.5794Z" fill="#1E3A8A"/>
<path d="M35.1288 0.000234375C19.1488 9.13023 8.71877 18.1902 5.44877 22.6402C0.808765 28.9402 0.378765 34.7302 0.378765 34.7302C0.378765 34.7702 0.368765 34.9202 0.348765 35.2302C-0.191235 44.1302 0.0387654 48.1902 0.108765 49.2702C0.458765 54.8502 1.37877 59.6202 1.83877 61.3402C5.73877 75.8002 33.2188 80.8302 34.7588 81.0902C34.8788 54.0602 34.9988 27.0202 35.1288 -0.00976562V0.000234375Z" fill="#1E3A8A"/>
<path d="M84.0898 152.6C100.07 143.47 110.5 134.41 113.77 129.96C118.41 123.66 118.84 117.87 118.84 117.87C118.84 117.83 118.85 117.68 118.87 117.37C119.41 108.47 119.18 104.41 119.11 103.33C118.76 97.7498 117.84 92.9798 117.38 91.2598C113.48 76.7998 85.9998 71.7698 84.4598 71.5098C84.3398 98.5398 84.2198 125.58 84.0898 152.61V152.6Z" fill="#1E3A8A"/>
</g>
<defs>
<clipPath id="clip0_375_85">
<rect width="119.22" height="152.6" fill="white"/>
</clipPath>
</defs>
</svg>
